<?xml version="1.0" encoding="UTF-8"?>
<svg xmlns="http://www.w3.org/2000/svg" xmlns:xlink="http://www.w3.org/1999/xlink" width="500px" height="500px" viewBox="0 0 500 500" version="1.1">
<defs>
<linearGradient id="linear0" gradientUnits="userSpaceOnUse" x1="14.4107" y1="13.8175" x2="6.28336" y2="5.67516" gradientTransform="matrix(3.759398,0,0,18.518519,0,0)">
<stop offset="0" style="stop-color:rgb(95.294118%,44.705882%,17.254902%);stop-opacity:1;"/>
<stop offset="1" style="stop-color:rgb(97.647059%,25.490196%,26.666667%);stop-opacity:1;"/>
</linearGradient>
<linearGradient id="linear1" gradientUnits="userSpaceOnUse" x1="21.7053" y1="21.1253" x2="13.7002" y2="13.1055" gradientTransform="matrix(3.759398,0,0,18.518519,0,0)">
<stop offset="0" style="stop-color:rgb(95.294118%,44.705882%,17.254902%);stop-opacity:1;"/>
<stop offset="1" style="stop-color:rgb(97.647059%,25.490196%,26.666667%);stop-opacity:1;"/>
</linearGradient>
</defs>
<g id="surface1">
<path style=" stroke:none;fill-rule:nonzero;fill:rgb(100%,100%,100%);fill-opacity:1;" d="M 134.8125 330.003906 C 134.816406 317.972656 136.726562 308.59375 139.167969 308.605469 C 141.609375 308.613281 142.976562 316.46875 143.410156 325.347656 C 144.253906 346.257812 148.804688 375.035156 157.292969 375.074219 C 165.453125 375.109375 170.984375 344.839844 170.992188 312.929688 C 171 270.089844 163.792969 254.871094 158.164062 247.070312 L 152.867188 239.710938 C 146.179688 229.777344 135.582031 207.722656 135.59375 139.277344 C 135.605469 82.355469 144.847656 40.582031 157.460938 40.636719 C 170.402344 40.695312 178.984375 84.089844 178.976562 124.875 C 178.976562 136.90625 177.066406 146.289062 174.625 146.277344 C 172.078125 146.265625 170.695312 137.898438 170.382812 128.507812 C 169.539062 108.109375 165.507812 81.976562 157.453125 81.9375 C 149.605469 81.902344 144.609375 110.636719 144.605469 141.960938 C 144.597656 183.773438 152.648438 197.382812 157.222656 203.636719 L 162 210.480469 C 168.894531 220.417969 180.027344 240.859375 180.015625 315.609375 C 180.003906 370.996094 170.242188 416.945312 157.300781 416.890625 C 144.449219 416.828125 134.808594 370.277344 134.8125 330.003906 Z M 134.8125 330.003906 "/>
<path style=" stroke:none;fill-rule:nonzero;fill:rgb(100%,100%,100%);fill-opacity:1;" d="M 203.167969 87.355469 L 186.625 87.28125 C 184.285156 87.269531 182.382812 77.871094 182.382812 66.355469 C 182.386719 54.839844 184.292969 45.96875 186.632812 45.980469 L 228.746094 46.171875 C 231.085938 46.183594 232.886719 55.066406 232.882812 66.582031 C 232.878906 78.101562 231.078125 87.480469 228.738281 87.472656 L 212.195312 87.398438 L 212.136719 393.589844 C 212.132812 405.621094 210.121094 416.03125 207.574219 416.015625 C 205.132812 416.003906 203.125 405.578125 203.128906 393.550781 L 203.183594 87.355469 Z M 203.167969 87.355469 "/>
<path style=" stroke:none;fill-rule:nonzero;fill:rgb(100%,100%,100%);fill-opacity:1;" d="M 276.894531 51.15625 C 278.054688 44.925781 279.335938 42.289062 280.601562 42.296875 C 283.042969 42.304688 285.054688 52.21875 285.050781 64.761719 L 284.988281 393.917969 C 284.988281 405.949219 282.976562 416.355469 280.53125 416.34375 C 277.984375 416.332031 275.976562 405.90625 275.980469 393.875 L 275.992188 321.253906 L 256.902344 321.167969 C 254.5625 321.15625 252.761719 312.273438 252.765625 300.753906 C 252.769531 289.238281 254.570312 279.855469 256.910156 279.867188 L 276 279.953125 L 276.03125 120.621094 L 227.070312 408.328125 C 226.328125 412.503906 224.957031 416.167969 223.777344 416.160156 C 221.441406 416.148438 219.535156 406.75 219.539062 395.234375 C 219.539062 390.539062 219.75 386.359375 220.597656 381.667969 Z M 276.894531 51.15625 "/>
<path style=" stroke:none;fill-rule:nonzero;fill:rgb(100%,100%,100%);fill-opacity:1;" d="M 350.625 51.488281 C 351.785156 45.257812 353.066406 42.625 354.332031 42.628906 C 356.777344 42.640625 358.785156 52.554688 358.78125 65.097656 L 358.722656 394.25 C 358.71875 406.285156 356.707031 416.691406 354.265625 416.679688 C 351.71875 416.667969 349.710938 406.242188 349.710938 394.210938 L 349.726562 321.585938 L 330.632812 321.5 C 328.296875 321.492188 326.496094 312.605469 326.496094 301.089844 C 326.5 289.570312 328.304688 280.191406 330.640625 280.199219 L 349.734375 280.285156 L 349.761719 120.953125 L 300.804688 408.660156 C 300.058594 412.839844 298.6875 416.5 297.511719 416.496094 C 295.171875 416.484375 293.269531 407.085938 293.269531 395.570312 C 293.269531 390.875 293.480469 386.695312 294.328125 382.003906 Z M 350.625 51.488281 "/>
<path style=" stroke:none;fill-rule:nonzero;fill:rgb(100%,100%,100%);fill-opacity:1;" d="M 370.738281 229.765625 C 370.761719 124.714844 387.425781 41.75 408.542969 41.847656 C 420.425781 41.898438 430.710938 68.574219 437.269531 107.851562 C 438.121094 112.550781 438.535156 118.273438 438.535156 123.554688 C 438.53125 135.585938 436.519531 145.480469 433.972656 145.46875 C 432.8125 145.464844 431.429688 141.789062 430.371094 136.578125 C 425.28125 105.230469 417.648438 84.289062 408.535156 84.246094 C 392.628906 84.175781 380.09375 148.378906 380.078125 229.878906 C 380.0625 310.867188 392.558594 375.183594 408.480469 375.253906 C 422.371094 375.320312 433.417969 326.21875 435.976562 260.941406 L 414.753906 260.847656 C 412.417969 260.835938 410.617188 251.953125 410.621094 240.433594 C 410.621094 228.917969 412.425781 219.535156 414.761719 219.546875 L 441.910156 219.667969 C 444.25 219.679688 446.050781 229.078125 446.050781 241.621094 C 445.390625 330.96875 429.886719 418.195312 408.46875 418.097656 C 387.351562 417.929688 370.71875 334.738281 370.738281 229.765625 Z M 370.738281 229.765625 "/>
<path style=" stroke:none;fill-rule:nonzero;fill:rgb(100%,100%,100%);fill-opacity:1;" d="M 457.546875 69.214844 C 457.550781 57.183594 459.558594 47.289062 462.003906 47.300781 L 492.128906 47.4375 C 494.464844 47.449219 496.265625 56.332031 496.265625 67.851562 C 496.261719 79.367188 494.457031 88.75 492.121094 88.738281 L 466.550781 88.621094 L 466.53125 209.296875 L 492.097656 209.410156 C 494.4375 209.421875 496.238281 218.820312 496.238281 230.335938 C 496.234375 241.855469 494.429688 250.722656 492.089844 250.710938 L 466.523438 250.597656 L 466.5 371.785156 L 492.066406 371.898438 C 494.40625 371.910156 496.207031 380.792969 496.207031 392.3125 C 496.203125 403.828125 494.398438 413.210938 492.058594 413.199219 L 461.9375 413.0625 C 459.492188 413.050781 457.484375 403.140625 457.484375 390.59375 Z M 457.546875 69.214844 "/>
<path style=" stroke:none;fill-rule:nonzero;fill:url(#linear0);" d="M 21.015625 366.535156 L 21.703125 366.535156 C 29.789062 366.574219 44.371094 344.78125 44.390625 248.828125 C 44.410156 131.015625 57.871094 77.160156 72.378906 59.546875 L 68.285156 39.355469 C 59.671875 -3.160156 45.671875 -3.222656 37.042969 39.210938 L 10.242188 170.988281 C 1.609375 213.421875 1.597656 282.378906 10.214844 324.894531 L 18.933594 367.917969 C 19.570312 367.039062 20.289062 366.53125 21.015625 366.535156 Z M 21.015625 366.535156 "/>
<path style=" stroke:none;fill-rule:nonzero;fill:url(#linear1);" d="M 95.023438 171.371094 L 86.675781 130.179688 C 86.082031 130.835938 85.46875 131.273438 84.828125 131.269531 L 84.144531 131.269531 C 76.058594 131.230469 61.472656 153.027344 61.457031 248.976562 C 61.433594 367.523438 47.796875 421.304688 33.199219 438.550781 L 36.933594 456.980469 C 45.550781 499.496094 59.546875 499.558594 68.179688 457.121094 L 94.980469 325.347656 C 103.640625 282.839844 103.652344 213.957031 95.023438 171.371094 Z M 95.023438 171.371094 "/>
</g>
</svg>
